<?xml version="1.0" encoding="UTF-8" standalone="no"?>
<!-- Created with Inkscape (http://www.inkscape.org/) -->

<svg
   xmlns:dc="http://purl.org/dc/elements/1.1/"
   xmlns:cc="http://creativecommons.org/ns#"
   xmlns:rdf="http://www.w3.org/1999/02/22-rdf-syntax-ns#"
   xmlns:svg="http://www.w3.org/2000/svg"
   xmlns="http://www.w3.org/2000/svg"
   xmlns:sodipodi="http://sodipodi.sourceforge.net/DTD/sodipodi-0.dtd"
   xmlns:inkscape="http://www.inkscape.org/namespaces/inkscape"
   width="90"
   height="90"
   viewBox="0 0 90.000001 90.000001"
   id="svg4925"
   version="1.1"
   inkscape:version="0.91 r13725"
   sodipodi:docname="bathroom-signs-women.svg">
  <defs
     id="defs4927" />
  <sodipodi:namedview
     id="base"
     pagecolor="#ffffff"
     bordercolor="#666666"
     borderopacity="1.0"
     inkscape:pageopacity="0.0"
     inkscape:pageshadow="2"
     inkscape:zoom="3.959798"
     inkscape:cx="39.016128"
     inkscape:cy="38.654669"
     inkscape:document-units="px"
     inkscape:current-layer="layer1"
     showgrid="false"
     units="px"
     inkscape:window-width="1920"
     inkscape:window-height="1017"
     inkscape:window-x="1912"
     inkscape:window-y="-8"
     inkscape:window-maximized="1" />
  <metadata
     id="metadata4930">
    <rdf:RDF>
      <cc:Work
         rdf:about="">
        <dc:format>image/svg+xml</dc:format>
        <dc:type
           rdf:resource="http://purl.org/dc/dcmitype/StillImage" />
        <dc:title />
      </cc:Work>
    </rdf:RDF>
  </metadata>
  <g
     inkscape:label="Layer 1"
     inkscape:groupmode="layer"
     id="layer1"
     transform="translate(0,-962.36216)">
    <path
       style="fill:#000000;stroke:none;stroke-width:3;stroke-linejoin:miter;stroke-miterlimit:4;stroke-dasharray:none"
       d="M 45 0 A 45 45 0 0 0 0 45 A 45 45 0 0 0 45 90 A 45 45 0 0 0 90 45 A 45 45 0 0 0 45 0 z M 45.103516 1.0566406 A 10 10 0 0 1 55.103516 11.056641 A 10 10 0 0 1 45.103516 21.056641 A 10 10 0 0 1 35.103516 11.056641 A 10 10 0 0 1 45.103516 1.0566406 z M 43.134766 22.289062 C 44.330917 22.291462 45.078125 22.320314 45.078125 22.320312 C 45.078125 22.320312 57.031231 21.859407 61.873047 24.466797 C 66.259035 26.828717 64.892923 47.906609 63.134766 50.224609 C 62.498363 51.063609 61.018828 51.102918 60.609375 50.382812 C 58.021733 45.831813 61.028928 35.182384 58.337891 29.896484 C 57.820895 28.880984 56.49444 28.701452 55.685547 29.138672 C 54.032574 30.032122 57.230907 77.0573 55.685547 77.625 C 54.266273 78.1464 50.007852 78.5982 49.371094 77.625 C 48.513972 76.315 49.469838 63.138109 48.390625 58.287109 C 48.087472 56.924409 45.078125 56.412109 45.078125 56.412109 C 45.078126 56.412109 42.070731 56.924409 41.767578 58.287109 C 40.688366 63.138109 41.642278 76.315 40.785156 77.625 C 40.148398 78.5982 35.89193 78.1464 34.472656 77.625 C 32.927296 77.0573 35.909788 31.167422 34.472656 29.138672 C 33.763196 28.137152 32.054105 29.170047 31.537109 30.185547 C 28.846072 35.471447 32.134518 45.831815 29.546875 50.382812 C 29.137424 51.102913 27.657887 51.063609 27.021484 50.224609 C 25.263327 47.906609 23.899168 26.828717 28.285156 24.466797 C 31.916518 22.511267 39.546315 22.282063 43.134766 22.289062 z M 37.736328 78.724609 C 38.627441 78.724609 39.356282 79.017582 39.921875 79.603516 C 40.487468 80.185382 40.769531 80.992018 40.769531 82.021484 C 40.769531 82.855618 40.644857 83.512054 40.392578 83.992188 C 40.144368 84.468254 39.778971 84.838982 39.298828 85.103516 C 38.822754 85.367982 38.301921 85.5 37.736328 85.5 C 36.828939 85.5 36.094726 85.20882 35.533203 84.626953 C 34.975749 84.045086 34.697266 83.207881 34.697266 82.113281 C 34.697266 80.912948 35.029948 80.023113 35.697266 79.445312 C 36.25472 78.965181 36.934733 78.724609 37.736328 78.724609 z M 45.011719 78.724609 C 45.491862 78.724609 45.884277 78.824038 46.189453 79.023438 C 46.498698 79.222769 46.717611 79.501308 46.84375 79.859375 C 47.356445 79.102575 48.023763 78.724609 48.845703 78.724609 C 49.488606 78.724609 49.982259 78.903652 50.328125 79.261719 C 50.673991 79.615719 50.847656 80.163764 50.847656 80.904297 L 50.847656 85.353516 L 49.753906 85.353516 L 49.753906 81.269531 C 49.753906 80.830131 49.717774 80.515485 49.644531 80.324219 C 49.575359 80.128885 49.44694 79.971516 49.259766 79.853516 C 49.072591 79.735516 48.853841 79.677734 48.601562 79.677734 C 48.145834 79.677734 47.76595 79.829566 47.464844 80.134766 C 47.163737 80.435899 47.013672 80.920624 47.013672 81.587891 L 47.013672 85.353516 L 45.916016 85.353516 L 45.916016 81.142578 C 45.916016 80.654311 45.82552 80.287169 45.646484 80.042969 C 45.467448 79.798835 45.174479 79.677734 44.767578 79.677734 C 44.458333 79.677734 44.172688 79.759075 43.908203 79.921875 C 43.647786 80.084608 43.457845 80.321432 43.339844 80.634766 C 43.221842 80.948099 43.162109 81.400234 43.162109 81.990234 L 43.162109 85.353516 L 42.064453 85.353516 L 42.064453 78.871094 L 43.046875 78.871094 L 43.046875 79.78125 C 43.250326 79.46385 43.521647 79.208845 43.859375 79.017578 C 44.197102 78.822311 44.580403 78.724609 45.011719 78.724609 z M 55.173828 78.724609 C 56.040527 78.724609 56.749511 79.019375 57.298828 79.609375 C 57.848145 80.199375 58.123047 81.029476 58.123047 82.099609 C 58.123047 82.164943 58.121254 82.262578 58.117188 82.392578 L 53.283203 82.392578 C 53.32389 83.104645 53.524573 83.650897 53.886719 84.029297 C 54.248861 84.407764 54.701009 84.597656 55.242188 84.597656 C 55.64502 84.597656 55.988607 84.490897 56.273438 84.279297 C 56.558267 84.067697 56.784342 83.729492 56.951172 83.265625 L 58.085938 83.40625 C 57.9069 84.06945 57.57601 84.584905 57.091797 84.951172 C 56.607585 85.317372 55.989095 85.5 55.236328 85.5 C 54.288249 85.5 53.534017 85.20882 52.976562 84.626953 C 52.423178 84.04102 52.146484 83.221835 52.146484 82.167969 C 52.146484 81.077435 52.428711 80.231106 52.990234 79.628906 C 53.551758 79.026706 54.278645 78.724609 55.173828 78.724609 z M 62.523438 78.724609 C 62.914063 78.724609 63.272136 78.797053 63.597656 78.939453 C 63.927246 79.077786 64.173178 79.260415 64.335938 79.488281 C 64.498698 79.716148 64.61263 79.987448 64.677734 80.300781 C 64.718428 80.504248 64.738281 80.858588 64.738281 81.367188 L 64.738281 85.353516 L 63.640625 85.353516 L 63.640625 81.410156 C 63.640625 80.962556 63.597168 80.629823 63.511719 80.410156 C 63.426269 80.186356 63.274414 80.009173 63.054688 79.878906 C 62.83903 79.74464 62.583984 79.677734 62.291016 79.677734 C 61.823079 79.677734 61.417969 79.82598 61.076172 80.123047 C 60.738444 80.420047 60.570312 80.98432 60.570312 81.814453 L 60.570312 85.353516 L 59.470703 85.353516 L 59.470703 78.871094 L 60.460938 78.871094 L 60.460938 79.792969 C 60.937011 79.080902 61.624186 78.724609 62.523438 78.724609 z M 25.261719 78.871094 L 26.396484 78.871094 L 27.427734 82.613281 L 27.8125 84.003906 C 27.828773 83.934773 27.940915 83.489902 28.148438 82.667969 L 29.179688 78.871094 L 30.308594 78.871094 L 31.279297 82.630859 L 31.603516 83.871094 L 31.974609 82.619141 L 33.085938 78.871094 L 34.154297 78.871094 L 32.126953 85.353516 L 30.986328 85.353516 L 29.955078 81.472656 L 29.705078 80.367188 L 28.392578 85.353516 L 27.244141 85.353516 L 25.261719 78.871094 z M 55.1875 79.628906 C 54.682943 79.628906 54.257975 79.797032 53.912109 80.134766 C 53.570312 80.472499 53.380371 80.924634 53.34375 81.490234 L 56.962891 81.490234 C 56.914064 80.944968 56.776694 80.536272 56.548828 80.263672 C 56.198893 79.840472 55.744954 79.628906 55.1875 79.628906 z M 37.736328 79.634766 C 37.187012 79.634766 36.731283 79.840953 36.369141 80.251953 C 36.006999 80.662886 35.826172 81.283215 35.826172 82.113281 C 35.826172 82.943348 36.006999 83.565402 36.369141 83.980469 C 36.731283 84.391469 37.187012 84.597656 37.736328 84.597656 C 38.281575 84.597656 38.735514 84.389676 39.097656 83.974609 C 39.459798 83.559543 39.640625 82.926572 39.640625 82.076172 C 39.640625 81.274572 39.458008 80.668749 39.091797 80.257812 C 38.729655 79.842748 38.277507 79.634766 37.736328 79.634766 z "
       transform="translate(0,962.36216)"
       id="path5473" />
  </g>
</svg>
