<?xml version="1.0" encoding="UTF-8" standalone="no"?>
<!-- Created with Inkscape (http://www.inkscape.org/) -->

<svg
   xmlns:dc="http://purl.org/dc/elements/1.1/"
   xmlns:cc="http://creativecommons.org/ns#"
   xmlns:rdf="http://www.w3.org/1999/02/22-rdf-syntax-ns#"
   xmlns:svg="http://www.w3.org/2000/svg"
   xmlns="http://www.w3.org/2000/svg"
   xmlns:sodipodi="http://sodipodi.sourceforge.net/DTD/sodipodi-0.dtd"
   xmlns:inkscape="http://www.inkscape.org/namespaces/inkscape"
   width="90"
   height="90"
   viewBox="0 0 90.000001 90.000001"
   id="svg4925"
   version="1.1"
   inkscape:version="0.91 r13725"
   sodipodi:docname="bathroom-signs-men.svg">
  <defs
     id="defs4927" />
  <sodipodi:namedview
     id="base"
     pagecolor="#ffffff"
     bordercolor="#666666"
     borderopacity="1.0"
     inkscape:pageopacity="0.0"
     inkscape:pageshadow="2"
     inkscape:zoom="7.9195959"
     inkscape:cx="24.246771"
     inkscape:cy="37.867597"
     inkscape:document-units="px"
     inkscape:current-layer="layer1"
     showgrid="false"
     units="px"
     inkscape:window-width="1920"
     inkscape:window-height="1017"
     inkscape:window-x="1912"
     inkscape:window-y="-8"
     inkscape:window-maximized="1" />
  <metadata
     id="metadata4930">
    <rdf:RDF>
      <cc:Work
         rdf:about="">
        <dc:format>image/svg+xml</dc:format>
        <dc:type
           rdf:resource="http://purl.org/dc/dcmitype/StillImage" />
        <dc:title />
      </cc:Work>
    </rdf:RDF>
  </metadata>
  <g
     inkscape:label="Layer 1"
     inkscape:groupmode="layer"
     id="layer1"
     transform="translate(0,-962.36216)">
    <path
       style="fill:#000000;stroke:none;stroke-width:3;stroke-linejoin:miter;stroke-miterlimit:4;stroke-dasharray:none"
       d="M 45 0 A 45 45 0 0 0 0 45 A 45 45 0 0 0 45 90 A 45 45 0 0 0 90 45 A 45 45 0 0 0 45 0 z M 45.103516 1.0566406 A 10 10 0 0 1 55.103516 11.056641 A 10 10 0 0 1 45.103516 21.056641 A 10 10 0 0 1 35.103516 11.056641 A 10 10 0 0 1 45.103516 1.0566406 z M 43.134766 22.289062 C 44.330917 22.291462 45.078125 22.320313 45.078125 22.320312 C 45.078125 22.320312 57.031231 21.859407 61.873047 24.466797 C 66.259035 26.828717 64.892923 47.906609 63.134766 50.224609 C 62.498363 51.063609 61.018828 51.102914 60.609375 50.382812 C 58.021733 45.831813 61.028928 35.182384 58.337891 29.896484 C 57.820895 28.880984 56.49444 28.701452 55.685547 29.138672 C 54.032574 30.032122 57.230907 77.0573 55.685547 77.625 C 54.266273 78.1464 50.007852 78.5982 49.371094 77.625 C 48.513972 76.315 49.469838 63.138109 48.390625 58.287109 C 48.087472 56.924409 45.078125 56.412109 45.078125 56.412109 C 45.078126 56.412109 42.070731 56.924409 41.767578 58.287109 C 40.688366 63.138109 41.642278 76.315 40.785156 77.625 C 40.148398 78.5982 35.89193 78.1464 34.472656 77.625 C 32.927296 77.0573 35.909788 31.167422 34.472656 29.138672 C 33.763196 28.137152 32.054105 29.170047 31.537109 30.185547 C 28.846072 35.471447 32.134518 45.831813 29.546875 50.382812 C 29.137424 51.102913 27.657887 51.063609 27.021484 50.224609 C 25.263327 47.906609 23.899168 26.828717 28.285156 24.466797 C 31.916518 22.511267 39.546315 22.282063 43.134766 22.289062 z M 36.640625 80.267578 C 37.120768 80.267578 37.515137 80.367006 37.820312 80.566406 C 38.129557 80.76574 38.346517 81.044277 38.472656 81.402344 C 38.985352 80.645544 39.652669 80.267578 40.474609 80.267578 C 41.117513 80.267578 41.611165 80.446621 41.957031 80.804688 C 42.302897 81.158687 42.476563 81.704779 42.476562 82.445312 L 42.476562 86.896484 L 41.384766 86.896484 L 41.384766 82.8125 C 41.384766 82.373033 41.34668 82.058454 41.273438 81.867188 C 41.204264 81.671854 41.075847 81.514484 40.888672 81.396484 C 40.701498 81.278484 40.482747 81.21875 40.230469 81.21875 C 39.774739 81.21875 39.39681 81.372534 39.095703 81.677734 C 38.794596 81.978868 38.642578 82.46164 38.642578 83.128906 L 38.642578 86.896484 L 37.544922 86.896484 L 37.544922 82.683594 C 37.544922 82.195327 37.454427 81.830071 37.275391 81.585938 C 37.096354 81.341738 36.803385 81.21875 36.396484 81.21875 C 36.08724 81.21875 35.801595 81.300091 35.537109 81.462891 C 35.276693 81.625624 35.086751 81.864401 34.96875 82.177734 C 34.850749 82.491068 34.792969 82.943203 34.792969 83.533203 L 34.792969 86.896484 L 33.693359 86.896484 L 33.693359 80.414062 L 34.675781 80.414062 L 34.675781 81.322266 C 34.879232 81.004866 35.150553 80.751747 35.488281 80.560547 C 35.826009 80.365214 36.20931 80.267578 36.640625 80.267578 z M 46.804688 80.267578 C 47.671387 80.267578 48.378418 80.562344 48.927734 81.152344 C 49.477051 81.742344 49.751953 82.572445 49.751953 83.642578 C 49.751953 83.707911 49.75016 83.805547 49.746094 83.935547 L 44.912109 83.935547 C 44.952803 84.647614 45.153486 85.191912 45.515625 85.570312 C 45.877767 85.948779 46.329915 86.138672 46.871094 86.138672 C 47.273926 86.138672 47.617513 86.033866 47.902344 85.822266 C 48.187174 85.610666 48.413249 85.27246 48.580078 84.808594 L 49.714844 84.949219 C 49.535807 85.612485 49.204915 86.125987 48.720703 86.492188 C 48.236491 86.858387 47.618002 87.042969 46.865234 87.042969 C 45.917155 87.042969 45.164877 86.751789 44.607422 86.169922 C 44.054037 85.583989 43.777344 84.762851 43.777344 83.708984 C 43.777344 82.618451 44.057617 81.772122 44.619141 81.169922 C 45.180665 80.567722 45.909506 80.267578 46.804688 80.267578 z M 54.152344 80.267578 C 54.542968 80.267578 54.901041 80.338069 55.226562 80.480469 C 55.556152 80.618802 55.802083 80.80143 55.964844 81.029297 C 56.127604 81.257164 56.241537 81.528464 56.306641 81.841797 C 56.347327 82.045264 56.367187 82.401556 56.367188 82.910156 L 56.367188 86.896484 L 55.269531 86.896484 L 55.269531 82.953125 C 55.269531 82.505592 55.226074 82.170905 55.140625 81.951172 C 55.055176 81.727372 54.90332 81.550122 54.683594 81.419922 C 54.467936 81.285589 54.212891 81.21875 53.919922 81.21875 C 53.451986 81.21875 53.046875 81.366996 52.705078 81.664062 C 52.36735 81.961129 52.199219 82.525402 52.199219 83.355469 L 52.199219 86.896484 L 51.101562 86.896484 L 51.101562 80.414062 L 52.089844 80.414062 L 52.089844 81.335938 C 52.565918 80.623871 53.253092 80.267578 54.152344 80.267578 z M 46.816406 81.169922 C 46.311849 81.169922 45.886882 81.340001 45.541016 81.677734 C 45.199219 82.015468 45.009278 82.46565 44.972656 83.03125 L 48.591797 83.03125 C 48.54297 82.485983 48.4056 82.077287 48.177734 81.804688 C 47.8278 81.381487 47.373861 81.169922 46.816406 81.169922 z "
       transform="translate(0,962.36216)"
       id="path5473" />
    <g
       style="font-style:normal;font-weight:normal;font-size:40px;line-height:125%;font-family:sans-serif;letter-spacing:0px;word-spacing:0px;fill:#ffffff;fill-opacity:1;stroke:none;stroke-width:1px;stroke-linecap:butt;stroke-linejoin:miter;stroke-opacity:1"
       id="text5510" />
  </g>
</svg>
